<svg width="80" height="80" viewBox="0 0 80 80" fill="none" xmlns="http://www.w3.org/2000/svg">
<g clip-path="url(#clip0_248_384)">
<path d="M39.9857 45.9834C43.929 45.9834 47.1257 42.7867 47.1257 38.8434C47.1257 34.9001 43.929 31.7034 39.9857 31.7034C36.0424 31.7034 32.8457 34.9001 32.8457 38.8434C32.8457 42.7867 36.0424 45.9834 39.9857 45.9834Z" fill="white"/>
<path d="M39.9859 26.0306C49.2126 26.0306 57.9774 27.3315 64.6408 29.6254C72.0413 32.1731 76.5554 35.9398 76.5554 38.842C76.5554 41.9335 71.6803 45.9469 63.7644 48.5697C57.4625 50.6577 49.0308 51.7958 39.9859 51.7958C30.484 51.7958 21.9573 50.6799 15.7284 48.5508C11.8289 47.2179 8.60856 45.4857 6.40124 43.5954C4.41776 41.8968 3.41637 40.2104 3.41637 38.842C3.41637 35.93 7.7578 32.2157 14.9987 29.6911C21.6648 27.3672 30.6442 26.0306 39.9859 26.0306ZM39.9859 22.6143C30.2813 22.6143 20.9258 24.0068 13.874 26.4652C5.40715 29.4171 0 34.0433 0 38.842C0 43.7982 5.80467 48.7692 14.6235 51.7835C21.2522 54.0493 30.1375 55.2121 39.9859 55.2121C49.3718 55.2121 58.1582 54.0262 64.8389 51.8127C74.0069 48.7751 79.9718 43.8645 79.9718 38.842C79.9718 34.026 74.3902 29.3686 65.7529 26.3951C58.7096 23.9704 49.5724 22.6143 39.9859 22.6143ZM28.8261 32.4775C33.4354 24.4848 38.941 17.5419 44.2571 12.9155C50.1611 7.77746 55.6792 5.74868 58.1934 7.19851C60.8714 8.74287 61.9127 14.9712 60.2302 23.1386C58.8906 29.641 55.6642 37.5136 51.1457 45.349C46.3988 53.5802 41.1725 60.4091 36.2163 64.7414C33.1136 67.4536 30.0043 69.378 27.264 70.3457C24.8017 71.2153 22.8405 71.2403 21.655 70.5567C19.1325 69.1019 18.0838 63.4856 19.5142 55.9518C20.8311 49.0163 24.1591 40.5702 28.8261 32.4775ZM25.8666 30.7707C21.0182 39.1779 17.5509 47.9778 16.1578 55.3146C14.4852 64.1238 15.7914 71.1188 19.9483 73.5162C24.2419 75.9922 31.448 73.4472 38.4647 67.3136C43.7392 62.7031 49.1853 55.5871 54.1052 47.0557C58.7941 38.9249 62.1562 30.7211 63.5763 23.828C65.525 14.3687 64.2509 6.74798 59.9 4.23898C55.728 1.8331 48.9051 4.3416 42.0143 10.3384C36.3951 15.2286 30.6557 22.4664 25.8666 30.7707ZM28.8368 45.3676C24.2141 37.3825 20.9486 29.1453 19.5954 22.2292C18.0925 14.5482 19.0907 8.75418 21.6024 7.30015C24.2779 5.75122 30.194 7.95962 36.4295 13.4963C41.394 17.9041 46.6032 24.6309 51.1349 32.4589C55.8955 40.6821 59.2018 48.6205 60.4801 55.078C61.2803 59.1207 61.3946 62.7755 60.8645 65.6329C60.3882 68.2004 59.4304 69.912 58.2461 70.5976C55.7259 72.0566 50.3362 70.1603 44.5237 65.1585C39.1728 60.5539 33.5174 53.4525 28.8368 45.3676ZM25.8801 47.0792C30.7426 55.4782 36.6348 62.8771 42.2953 67.7481C49.0919 73.5967 55.8047 75.9585 59.9577 73.5542C64.2472 71.0711 65.6411 63.557 63.8314 54.4147C62.4711 47.5425 59.0258 39.2703 54.0916 30.7472C49.389 22.6241 43.9606 15.6144 38.6978 10.9416C31.476 4.52917 24.2374 1.8271 19.8908 4.34349C15.7227 6.75635 14.4885 13.9204 16.2426 22.8852C17.673 30.1956 21.0772 38.7828 25.8801 47.0792Z" fill="white"/>
</g>
<defs>
<clipPath id="clip0_248_384">
<rect width="80" height="80" fill="white"/>
</clipPath>
</defs>
</svg>
