<svg width="80" height="80" viewBox="0 0 80 80" fill="none" xmlns="http://www.w3.org/2000/svg">
<path fill-rule="evenodd" clip-rule="evenodd" d="M39.9993 20.12C31.1093 20.12 25.556 24.5367 23.3327 33.3733C26.666 28.9567 30.556 27.3 34.9993 28.4033C37.536 29.0333 39.3493 30.8633 41.3527 32.8867C44.6227 36.1833 48.406 40 56.666 40C65.556 40 71.1093 35.5833 73.3327 26.7467C69.9993 31.1633 66.1127 32.82 61.666 31.7167C59.1293 31.0867 57.316 29.2567 55.3093 27.2333C52.0427 23.9333 48.2627 20.12 39.9993 20.12ZM23.3327 40C14.4427 40 8.88935 44.4167 6.66602 53.2533C9.99935 48.8333 13.8893 47.18 18.3327 48.2833C20.8693 48.9133 22.6827 50.7433 24.6893 52.7667C27.956 56.0633 31.7393 59.88 40.0027 59.88C48.8927 59.88 54.446 55.4633 56.6693 46.6267C53.336 51.0433 49.446 52.7 45.0027 51.5967C42.466 50.9667 40.6527 49.1367 38.6493 47.1133C35.376 43.8167 31.5927 40 23.3327 40Z" fill="white"/>
</svg>
