<svg width="40" height="36" viewBox="0 0 40 36" fill="none" xmlns="http://www.w3.org/2000/svg">
<path d="M12.0775 3.98187C11.4526 4.34266 10.795 5.3376 10.7186 7.50784C10.6824 8.53872 9.81732 9.34502 8.78648 9.30876C7.75561 9.2725 6.94932 8.40745 6.98555 7.37658C7.07911 4.71595 7.92049 2.06862 10.2098 0.746909C12.5055 -0.578555 15.2275 0.0233513 17.5844 1.28072C18.4945 1.76625 18.8387 2.89763 18.3531 3.8077C17.8676 4.71779 16.7362 5.06197 15.8262 4.57647C13.9001 3.54894 12.7042 3.61998 12.0775 3.98187ZM22.092 7.22144C22.8864 6.56336 24.0637 6.6738 24.7218 7.46812C26.1024 9.13444 27.4267 11.0346 28.6287 13.1168C31.2194 17.6036 32.8166 22.2004 33.2472 26.0563C33.4621 27.981 33.3964 29.8126 32.9469 31.3834C32.4939 32.9663 31.6116 34.3989 30.1319 35.2531C28.3416 36.2868 26.2745 36.1401 24.3825 35.4513C22.4837 34.76 20.5296 33.4509 18.6666 31.7505C17.9048 31.055 17.8509 29.8736 18.5463 29.1118C19.2417 28.35 20.4231 28.296 21.1849 28.9915C22.8263 30.4897 24.3688 31.4708 25.6604 31.9413C26.9588 32.4139 27.7756 32.3004 28.2642 32.0182C28.6736 31.7819 29.0855 31.3003 29.3557 30.3557C29.6293 29.3994 29.7157 28.0901 29.535 26.4706C29.1739 23.238 27.789 19.133 25.3939 14.9845C24.2923 13.0764 23.0867 11.3496 21.8453 9.85121C21.1873 9.05689 21.2977 7.87949 22.092 7.22144Z" fill="black"/>
<path d="M36.1088 18.5093C36.1088 17.7877 35.5759 16.7207 33.7346 15.5695C32.86 15.0227 32.5943 13.8704 33.1411 12.9958C33.688 12.1211 34.8402 11.8554 35.7148 12.4022C37.9722 13.8136 39.8442 15.8659 39.8442 18.5093C39.8442 21.1602 37.962 23.2165 35.6946 24.629C34.8191 25.1743 33.6671 24.9069 33.1217 24.0313C32.5763 23.1557 32.844 22.0039 33.7194 21.4585C35.5724 20.3042 36.1088 19.2331 36.1088 18.5093ZM28.2958 25.5623C28.4687 26.5793 27.7843 27.5438 26.7673 27.7167C24.6341 28.079 22.3264 28.2757 19.9221 28.2757C14.7412 28.2757 9.96149 27.3608 6.40709 25.8056C4.63268 25.0294 3.07943 24.0567 1.94372 22.882C0.799316 21.6983 0 20.2179 0 18.5093C0 16.4422 1.16067 14.7251 2.70313 13.4311C4.25117 12.1324 6.36189 11.0945 8.76604 10.3314C9.74922 10.0194 10.7992 10.5634 11.1113 11.5466C11.4233 12.5297 10.8793 13.5797 9.89615 13.8918C7.77793 14.5641 6.15692 15.4094 5.10389 16.2929C4.04523 17.181 3.73539 17.9451 3.73539 18.5093C3.73539 18.9819 3.94647 19.5794 4.62927 20.2857C5.32077 21.001 6.41152 21.7304 7.90431 22.3835C10.8843 23.6871 15.1318 24.5403 19.9221 24.5403C22.1253 24.5403 24.2236 24.3598 26.1418 24.0338C27.1588 23.8612 28.1233 24.5455 28.2958 25.5623Z" fill="black"/>
<path d="M12.1328 32.0183C12.7577 32.3791 13.9482 32.4511 15.8658 31.4321C16.7767 30.948 17.9075 31.2941 18.3915 32.2048C18.8756 33.1158 18.5296 34.2466 17.6187 34.7307C15.2678 35.9798 12.5544 36.575 10.2651 35.2532C7.9694 33.9278 7.12966 31.2695 7.04013 28.5997C7.00557 27.5687 7.81326 26.7051 8.84418 26.6704C9.87509 26.6358 10.7389 27.4434 10.7734 28.4744C10.8466 30.6564 11.5061 31.6565 12.1328 32.0183ZM9.9311 21.7256C8.96403 21.3667 8.47099 20.2918 8.82986 19.3247C9.58266 17.296 10.566 15.199 11.7682 13.1168C14.3586 8.63005 17.5409 4.94821 20.6648 2.64752C22.2243 1.49896 23.8433 0.640117 25.4285 0.243942C27.0258 -0.155276 28.7077 -0.107281 30.1872 0.746999C31.9774 1.78056 32.8841 3.64425 33.2335 5.62708C33.5841 7.61708 33.4277 9.96394 32.8864 12.4276C32.665 13.4351 31.6689 14.0724 30.6616 13.8511C29.654 13.6297 29.0168 12.6336 29.2381 11.6261C29.7148 9.4555 29.7932 7.62901 29.5549 6.27533C29.3151 4.91444 28.8081 4.26408 28.3195 3.98196C27.9103 3.74563 27.2873 3.62969 26.3342 3.86788C25.369 4.10911 24.1919 4.68902 22.8799 5.65525C20.2608 7.58416 17.3982 10.836 15.0031 14.9845C13.9015 16.8926 13.0088 18.8001 12.3319 20.6243C11.973 21.5914 10.8981 22.0844 9.9311 21.7256Z" fill="black"/>
<path d="M23.5556 18.1621C23.5556 20.0317 22.0399 21.5473 20.1703 21.5473C18.3008 21.5473 16.7852 20.0317 16.7852 18.1621C16.7852 16.2925 18.3008 14.7769 20.1703 14.7769C22.0399 14.7769 23.5556 16.2925 23.5556 18.1621Z" fill="black"/>
</svg>
